HIERARCHY
ROOT Hips
{
 OFFSET 0.000000 0.000000 0.000000
 CHANNELS 6 Xposition Yposition Zposition Yrotation Xrotation Zrotation
 JOINT Chest
 {
  OFFSET 0.000000 9.585900 0.002600
  CHANNELS 3 Yrotation Xrotation Zrotation
  JOINT Chest2
  {
   OFFSET 0.000000 9.601200 -0.005300
   CHANNELS 3 Yrotation Xrotation Zrotation
   JOINT Chest3
   {
    OFFSET 0.000000 9.561800 0.000000
    CHANNELS 3 Yrotation Xrotation Zrotation
    JOINT Chest4
    {
     OFFSET 0.000000 9.552100 0.000000
     CHANNELS 3 Yrotation Xrotation Zrotation
     JOINT Neck
     {
      OFFSET 0.000000 14.453000 0.000000
      CHANNELS 3 Yrotation Xrotation Zrotation
      JOINT Head
      {
       OFFSET 0.000000 8.936500 -0.011300
       CHANNELS 3 Yrotation Xrotation Zrotation
       End Site
       {
        OFFSET 0.000000 17.073600 -0.006000
       }
      }
     }
     JOINT RightCollar
     {
      OFFSET -2.921100 9.558500 0.000000
      CHANNELS 3 Yrotation Xrotation Zrotation
      JOINT RightShoulder
      {
       OFFSET -13.519700 0.000000 0.000000
       CHANNELS 3 Yrotation Xrotation Zrotation
       JOINT RightElbow
       {
        OFFSET 0.000000 -29.696600 0.000000
        CHANNELS 3 Yrotation Xrotation Zrotation
        JOINT RightWrist
        {
         OFFSET 0.000000 -24.004700 0.000000
         CHANNELS 3 Yrotation Xrotation Zrotation
         End Site
         {
          OFFSET 0.000000 -17.728500 0.000000
         }
        }
       }
      }
     }
     JOINT LeftCollar
     {
      OFFSET 2.921100 9.558500 0.000000
      CHANNELS 3 Yrotation Xrotation Zrotation
      JOINT LeftShoulder
      {
       OFFSET 13.519700 0.000000 0.000000
       CHANNELS 3 Yrotation Xrotation Zrotation
       JOINT LeftElbow
       {
        OFFSET 0.000000 -29.696600 0.000000
        CHANNELS 3 Yrotation Xrotation Zrotation
        JOINT LeftWrist
        {
         OFFSET 0.000000 -24.004700 0.000000
         CHANNELS 3 Yrotation Xrotation Zrotation
         End Site
         {
          OFFSET 0.000000 -17.728500 0.000000
         }
        }
       }
      }
     }
    }
   }
  }
 }
 JOINT RightHip
 {
  OFFSET -7.771700 -0.012900 -0.001300
  CHANNELS 3 Yrotation Xrotation Zrotation
  JOINT RightKnee
  {
   OFFSET 0.000000 -40.869800 0.001200
   CHANNELS 3 Yrotation Xrotation Zrotation
   JOINT RightAnkle
   {
    OFFSET 0.000000 -39.717900 0.002100
    CHANNELS 3 Yrotation Xrotation Zrotation
    JOINT RightToe
    {
     OFFSET 0.000000 -4.965400 11.033500
     CHANNELS 3 Yrotation Xrotation Zrotation
     End Site
     {
      OFFSET 0.000000 -1.423100 5.872300
     }
    }
   }
  }
 }
 JOINT LeftHip
 {
  OFFSET 7.771700 -0.012900 -0.001300
  CHANNELS 3 Yrotation Xrotation Zrotation
  JOINT LeftKnee
  {
   OFFSET 0.000000 -40.869800 0.001200
   CHANNELS 3 Yrotation Xrotation Zrotation
   JOINT LeftAnkle
   {
    OFFSET 0.000000 -39.717900 0.002100
    CHANNELS 3 Yrotation Xrotation Zrotation
    JOINT LeftToe
    {
     OFFSET 0.000000 -4.965400 11.033500
     CHANNELS 3 Yrotation Xrotation Zrotation
     End Site
     {
      OFFSET 0.000000 -1.423100 5.872300
     }
    }
   }
  }
 }
}
MOTION
Frames: 15
Frame Time: 0.008333
0.000000 85.388000 0.000000 0.000000 -5.767877 0.000000 0.000000 11.653817 0.000000 0.000000 -5.885947 0.000000 0.000000 -0.000000 0.000000 0.000000 -0.000000 0.000000 0.000000 12.528835 0.000000 0.000000 0.711642 0.000000 0.000000 -0.000000 0.000000 0.000000 0.000000 -90.000000 0.000000 -2.309062 0.000000 0.000000 2.309062 0.000000 0.000000 -0.000000 0.000000 0.000000 -0.000000 90.000000 0.000000 -2.309062 0.000000 0.000000 2.309062 0.000000 0.000000 8.520406 0.000000 0.000000 1.905762 0.000000 -0.000000 -4.658285 0.000000 0.000000 -0.000000 0.000000 0.000000 8.520406 0.000000 0.000000 1.905762 0.000000 -0.000000 -4.658285 0.000000 0.000000 -0.000000 0.000000
-154.695753 49.199633 18.588499 178.120244 -32.284369 -3.383394 1.673529 18.367859 3.963407 0.056649 2.118799 0.392247 0.257702 3.474796 0.618073 1.257199 15.925138 3.058139 12.233584 18.183352 -2.967951 23.380667 -0.557728 -9.249073 -3.974027 -4.045000 -1.456346 -5.830683 -5.754223 -8.714953 -49.281402 -34.188027 90.182200 -1.847041 -4.095354 -2.561196 -3.414841 -5.710012 3.676136 5.661864 -4.729246 4.810809 61.536149 -33.365568 -94.583766 16.596346 -5.749449 8.151669 -4.168768 -52.289038 -8.091092 -144.584635 81.231347 -131.873875 -30.342754 -4.031983 -4.081573 -0.111722 -11.731940 1.255449 -15.076311 -54.168314 16.159963 -71.922210 65.607946 -76.738182 30.626647 7.299500 15.497184 -0.034934 -0.308440 -0.033807
-154.691139 49.199756 18.591066 178.138611 -32.288033 -3.364334 1.678115 18.367409 3.938639 0.147844 2.102604 0.375136 0.206105 3.481698 0.627186 1.287297 15.918902 3.041150 11.956384 18.374168 -2.984373 22.851956 -0.255077 -9.162978 -4.005068 -4.050229 -1.450855 -5.865838 -5.692276 -8.718980 -49.307668 -34.105027 90.116909 -1.824332 -4.100796 -2.486041 -3.368881 -5.668622 3.697791 5.999282 -4.749807 4.885205 61.850130 -33.445595 -94.498810 16.638393 -5.831444 8.352272 -4.154196 -52.292606 -8.121338 -144.586015 81.229434 -131.888829 -30.342645 -4.021741 -4.072731 -0.116015 -11.736475 1.251766 -15.076020 -54.162788 16.129176 -71.893044 65.608793 -76.710388 30.615225 7.307641 15.480138 -0.017554 -0.307773 -0.025088
-154.685456 49.200087 18.594358 178.136406 -32.293936 -3.336017 1.702133 18.368373 3.917378 0.177231 2.098112 0.369335 0.213257 3.478579 0.622562 1.319082 15.912975 3.024719 11.651449 18.571667 -3.003442 22.273351 0.056615 -9.073780 -4.029568 -4.055740 -1.446413 -5.915707 -5.633081 -8.728569 -49.344425 -34.039432 90.048013 -1.818346 -4.096656 -2.396673 -3.314836 -5.631526 3.715956 6.355389 -4.771034 4.969877 62.143759 -33.502146 -94.416091 16.690656 -5.926798 8.581456 -4.133148 -52.297516 -8.137685 -144.607149 81.232812 -131.921317 -30.356890 -4.018152 -4.084742 -0.111448 -11.736953 1.260647 -15.080253 -54.151276 16.110213 -71.848206 65.614488 -76.687068 30.634754 7.305051 15.486815 -0.034398 -0.311064 -0.027026
-154.679963 49.199431 18.600205 178.133015 -32.287476 -3.305608 1.749989 18.352583 3.899166 0.182768 2.097581 0.364737 0.220983 3.474944 0.618187 1.353720 15.905776 3.009757 11.324950 18.770238 -3.026471 21.657553 0.368477 -8.986749 -4.005695 -4.080636 -1.480670 -6.025651 -5.558424 -8.713689 -49.390596 -33.986866 89.974006 -1.834780 -4.059339 -2.326300 -3.258708 -5.595592 3.735851 6.734465 -4.790968 5.061557 62.414348 -33.537949 -94.332457 16.752950 -6.028903 8.827786 -4.119111 -52.317274 -8.149489 -144.685611 81.254357 -132.012862 -30.393411 -4.007114 -4.107170 -0.102502 -11.740916 1.273901 -15.126208 -54.141051 16.119352 -71.758877 65.620559 -76.631001 30.651719 7.307278 15.481820 -0.054735 -0.307556 -0.031837
-154.674452 49.198985 18.606768 178.140476 -32.280567 -3.283768 1.791212 18.338567 3.883138 0.186734 2.095803 0.359085 0.213127 3.473609 0.618886 1.405837 15.895584 2.990240 10.981089 18.961645 -3.054504 21.013744 0.666517 -8.906413 -4.020892 -4.091404 -1.479324 -6.125476 -5.489578 -8.805407 -49.474653 -33.911573 89.970672 -1.808087 -4.016589 -2.341141 -3.206250 -5.555236 3.759373 7.136960 -4.809775 5.158457 62.669069 -33.560957 -94.249138 16.827648 -6.130919 9.079597 -4.117812 -52.333475 -8.157385 -144.651950 81.250872 -131.995098 -30.377019 -4.009176 -4.132465 -0.113956 -11.734849 1.293218 -15.134831 -54.144189 16.098083 -71.717288 65.617838 -76.593727 30.663199 7.317902 15.472148 -0.061624 -0.308314 -0.032745
-154.668233 49.198396 18.614621 178.150836 -32.268840 -3.272591 1.872929 18.314409 3.876660 0.152263 2.095964 0.364276 0.221919 3.470036 0.614986 1.445685 15.887711 2.978441 10.625221 19.138739 -3.087268 20.352297 0.938644 -8.834967 -4.059531 -4.091230 -1.459851 -6.198806 -5.462269 -8.804516 -49.521061 -33.921969 89.845002 -1.790486 -3.997961 -2.259524 -3.160624 -5.508854 3.785110 7.558706 -4.824825 5.259739 62.918108 -33.579982 -94.166245 16.908667 -6.227240 9.325798 -4.149737 -52.356088 -8.127580 -144.560412 81.243168 -131.929950 -30.383466 -4.014639 -4.145419 -0.099517 -11.726253 1.300551 -15.141839 -54.154247 16.083160 -71.689690 65.607481 -76.558958 30.671844 7.334949 15.462949 -0.062101 -0.311017 -0.034423
-154.664440 49.196775 18.624493 178.168557 -32.244186 -3.256655 1.916134 18.280184 3.855568 0.144798 2.095178 0.364867 0.246923 3.464398 0.606473 1.471198 15.882732 2.973559 10.265802 19.296975 -3.124768 19.689016 1.177924 -8.775458 -4.101048 -4.088966 -1.439394 -6.273854 -5.439020 -8.804677 -49.592809 -33.950681 89.707284 -1.772571 -3.974124 -2.154498 -3.120915 -5.459750 3.814755 7.991507 -4.829492 5.359313 63.170784 -33.608576 -94.079598 16.983470 -6.314295 9.555183 -4.150558 -52.385277 -8.148799 -144.546842 81.252644 -131.915094 -30.392510 -4.022285 -4.166473 -0.087863 -11.717232 1.305362 -15.172043 -54.169352 16.072536 -71.615463 65.589831 -76.484240 30.688603 7.360722 15.450348 -0.078161 -0.316943 -0.033837
-154.662139 49.196985 18.631722 178.178700 -32.239250 -3.232608 1.951901 18.268128 3.829982 0.135971 2.094764 0.365746 0.253468 3.462390 0.603930 1.525007 15.875263 2.958087 9.913186 19.434992 -3.168017 19.043083 1.383474 -8.732539 -4.156784 -4.085057 -1.411048 -6.357689 -5.423318 -8.845051 -49.690048 -33.970856 89.583495 -1.754723 -3.944990 -2.023608 -3.086823 -5.409207 3.848183 8.431648 -4.821797 5.451509 63.429863 -33.656859 -93.983732 17.039602 -6.390447 9.758655 -4.126884 -52.393185 -8.192838 -144.575976 81.264942 -131.932343 -30.408080 -4.033327 -4.189337 -0.067699 -11.709618 1.309455 -15.179449 -54.166136 16.049397 -71.549676 65.586864 -76.431117 30.689032 7.367686 15.449916 -0.083654 -0.313590 -0.038141
-154.658651 49.198469 18.637275 178.189516 -32.246641 -3.220546 1.991530 18.270825 3.817816 0.098852 2.095398 0.372993 0.255651 3.461807 0.603146 1.605391 15.866526 2.932617 9.578577 19.555357 -3.216617 18.434171 1.561301 -8.707753 -4.238395 -4.077959 -1.364672 -6.487387 -5.424831 -8.938154 -49.765106 -33.974113 89.475026 -1.734665 -3.912585 -1.863542 -3.057935 -5.355671 3.885514 8.880694 -4.804470 5.534605 63.695184 -33.729439 -93.871551 17.073472 -6.450293 9.931257 -4.142106 -52.387863 -8.193138 -144.517148 81.265312 -131.888800 -30.402329 -4.040840 -4.192380 -0.071902 -11.701136 1.307941 -15.182661 -54.154444 16.033039 -71.513742 65.585253 -76.403044 30.687510 7.372996 15.446649 -0.085397 -0.313262 -0.037887
-154.654691 49.199492 18.643664 178.197060 -32.247554 -3.214071 2.034035 18.270711 3.811804 0.106020 2.088968 0.372610 0.263975 3.459602 0.600173 1.636213 15.865728 2.923335 9.274634 19.660428 -3.268745 17.884374 1.717149 -8.700846 -4.282544 -4.077322 -1.349153 -6.674784 -5.428143 -8.962286 -49.826360 -34.015745 89.306749 -1.713739 -3.880652 -1.672621 -3.031790 -5.299853 3.925659 9.336662 -4.777668 5.612385 63.970568 -33.832934 -93.742745 17.092667 -6.495588 10.073137 -4.165765 -52.389888 -8.188644 -144.473178 81.267588 -131.852748 -30.393298 -4.043778 -4.203401 -0.074514 -11.700098 1.306018 -15.187342 -54.151726 16.026283 -71.489685 65.586815 -76.381561 30.688118 7.380867 15.440780 -0.089831 -0.316562 -0.034879
-154.651182 49.199584 18.651500 178.208200 -32.236557 -3.211242 2.067799 18.262676 3.803695 0.117924 2.084783 0.372673 0.271429 3.456691 0.597275 1.659566 15.866715 2.914857 9.013214 19.748745 -3.323065 17.414763 1.849579 -8.712781 -4.318827 -4.071643 -1.346592 -6.879705 -5.448058 -8.952355 -49.886111 -34.078685 89.089381 -1.691178 -3.855939 -1.447499 -3.005660 -5.241652 3.965220 9.789617 -4.740648 5.690153 64.267265 -33.975946 -93.603861 17.102935 -6.539231 10.189468 -4.223897 -52.407455 -8.168292 -144.472590 81.271205 -131.865679 -30.384558 -4.050137 -4.225080 -0.080901 -11.703344 1.306330 -15.194104 -54.162874 16.020827 -71.453008 65.599639 -76.340640 30.679972 7.401654 15.433726 -0.088198 -0.325901 -0.030642
-154.648307 49.199928 18.659002 178.224873 -32.226255 -3.211923 2.071955 18.255434 3.794432 0.145531 2.084910 0.364921 0.278319 3.455439 0.594615 1.680069 15.871554 2.905796 8.803340 19.815453 -3.378903 17.041862 1.950637 -8.745318 -4.377216 -4.075494 -1.310927 -7.084342 -5.478016 -8.966853 -49.930926 -34.149916 88.828730 -1.666362 -3.842388 -1.181154 -2.976531 -5.179715 4.003653 10.228896 -4.695382 5.771156 64.590367 -34.163571 -93.454493 17.107904 -6.594432 10.285298 -4.262130 -52.421446 -8.160474 -144.479491 81.275971 -131.877967 -30.383494 -4.054463 -4.237588 -0.082939 -11.704952 1.304317 -15.205769 -54.173497 16.016745 -71.407544 65.622102 -76.292922 30.660391 7.425542 15.429283 -0.080988 -0.335973 -0.027956
-154.649918 49.198895 18.668497 178.240533 -32.199438 -3.190733 2.067209 18.233719 3.761127 0.197307 2.103433 0.337942 0.256844 3.440852 0.611550 1.684363 15.871692 2.903467 8.655342 19.862326 -3.447155 16.774663 2.009805 -8.799962 -4.416517 -4.047997 -1.339001 -7.326137 -5.539558 -8.918930 -49.959116 -34.229511 88.519298 -1.642220 -3.839456 -0.875283 -2.930809 -5.108445 4.026659 10.654760 -4.645503 5.860578 64.925701 -34.395285 -93.290162 17.113652 -6.665865 10.366715 -4.272979 -52.453984 -8.185707 -144.463432 81.282499 -131.866675 -30.385815 -4.047925 -4.257898 -0.083170 -11.713942 1.308234 -15.203944 -54.195747 16.001094 -71.368548 65.615971 -76.263269 30.615551 7.383361 15.407723 -0.047437 -0.278690 -0.011122
-154.647461 49.200603 18.674803 178.237826 -32.197932 -3.189579 2.100185 18.243070 3.755290 0.192967 2.107567 0.334946 0.270207 3.437586 0.609260 1.669109 15.860645 2.918779 8.572388 19.894984 -3.536944 16.613592 2.019874 -8.876783 -4.449344 -3.986347 -1.388703 -7.573657 -5.634614 -8.862476 -49.971233 -34.318224 88.156341 -1.620699 -3.846378 -0.551576 -2.860068 -5.020517 4.019816 11.069670 -4.596380 5.960830 65.258095 -34.658535 -93.105802 17.115541 -6.754193 10.445745 -4.299044 -52.457959 -8.166335 -144.433121 81.287865 -131.844758 -30.378828 -4.046343 -4.268406 -0.090010 -11.714817 1.307710 -15.200135 -54.192766 16.005520 -71.355035 65.611497 -76.248836 30.616656 7.379915 15.400932 -0.032908 -0.273542 -0.007527
